<svg version="1.1" id="Layer_1" xmlns="http://www.w3.org/2000/svg" xmlns:xlink="http://www.w3.org/1999/xlink" viewBox="0 0 480 480" xml:space="preserve" fill="#000000" transform="matrix(-1, 0, 0, 1, 0, 0)"><g id="SVGRepo_bgCarrier" stroke-width="0"></g><g id="SVGRepo_tracerCarrier" stroke-linecap="round" stroke-linejoin="round" stroke="#CCCCCC" stroke-width="0.96"></g><g id="SVGRepo_iconCarrier"> <path style="fill:#73390E;" d="M424,248h-16c-4.424,0-8-3.584-8-8s3.576-8,8-8h16c4.424,0,8,3.584,8,8 C432,244.416,428.424,248,424,248z"></path> <circle style="fill:#AD5F26;" cx="392" cy="368" r="27"></circle> <circle style="fill:#F7FAFD;" cx="88" cy="368" r="27"></circle> <g> <circle style="fill:#AD5F26;" cx="88" cy="368" r="27"></circle> <polygon style="fill:#AD5F26;" points="216,184 272,224 408,224 440,192 288,192 "></polygon> </g> <g> <rect id="SVGCleanerId_0" x="344" y="224" style="fill:#EFDFD4;" width="64" height="32"></rect> </g> <polygon style="fill:#E67F33;" points="192,328 160,264 224,264 240,296 224,328 "></polygon> <g> <polygon style="fill:#FCB641;" points="288,224 280,272 223,262.752 240,296 224,328 288,320 312,288 344,256 344,224 "></polygon> <polygon style="fill:#FCB641;" points="168.664,232.328 216.328,184.16 272.168,224.728 224,264 160,264 "></polygon> </g> <g> <rect id="SVGCleanerId_0_1_" x="344" y="224" style="fill:#EFDFD4;" width="64" height="32"></rect> </g> <g> <rect id="SVGCleanerId_0_2_" x="344" y="224" style="fill:#EFDFD4;" width="64" height="32"></rect> </g> <polygon style="fill:#E67F33;" points="215.416,184.584 216,184 152,160 136,128 104,128 96,160 72,160 64,192 104,192 120,232 168,232 168.752,232 216.496,185 "></polygon> <g> <path style="fill:#73390E;" d="M472,376c4.424,0,8-3.584,8-8s-3.576-8-8-8h-0.408c-0.48-4.856-1.456-9.552-2.768-14.112 l0.424-0.168c4.104-1.64,6.104-6.296,4.464-10.4s-6.328-6.096-10.4-4.456l-0.432,0.176c-2.544-4.848-5.528-9.424-8.976-13.632 l0.32-0.32c3.128-3.128,3.128-8.192,0-11.32c-3.128-3.12-8.184-3.12-11.312,0l-0.32,0.32c-3.464-2.84-7.2-5.352-11.112-7.584 l0.192-0.44c1.784-4.04-0.048-8.768-4.088-10.552c-4.048-1.776-8.76,0.048-10.552,4.08l-0.176,0.4 c-5.4-1.768-11.032-3.016-16.864-3.6V288c0-4.416-3.576-8-8-8s-8,3.584-8,8v0.408c-5.832,0.584-11.464,1.832-16.864,3.6l-0.176-0.4 c-1.792-4.032-6.48-5.864-10.552-4.08c-4.04,1.784-5.864,6.512-4.088,10.552l0.192,0.44c-3.912,2.232-7.64,4.744-11.112,7.584 l-0.32-0.32c-3.128-3.128-8.184-3.12-11.312,0c-3.128,3.128-3.128,8.192,0,11.32l0.32,0.32c-3.44,4.2-6.432,8.776-8.976,13.632 l-0.432-0.176c-4.072-1.648-8.76,0.344-10.4,4.456c-1.64,4.104,0.36,8.76,4.464,10.4l0.424,0.168 c-1.312,4.56-2.288,9.264-2.768,14.112H312c-4.424,0-8,3.584-8,8s3.576,8,8,8h0.408c0.48,4.856,1.456,9.552,2.768,14.112 l-0.424,0.168c-4.104,1.64-6.104,6.296-4.464,10.4c1.248,3.128,4.256,5.032,7.432,5.032c0.992,0,2-0.184,2.968-0.576l0.432-0.176 c2.544,4.848,5.528,9.424,8.976,13.632l-0.32,0.32c-3.128,3.128-3.128,8.192,0,11.32c1.56,1.56,3.608,2.336,5.656,2.336 s4.096-0.784,5.656-2.344l0.32-0.32c3.464,2.84,7.2,5.352,11.112,7.584l-0.192,0.44c-1.784,4.04,0.048,8.768,4.088,10.552 c1.056,0.464,2.152,0.688,3.224,0.688c3.072,0,6-1.784,7.328-4.768l0.176-0.4c5.4,1.768,11.032,3.016,16.864,3.6V448 c0,4.416,3.576,8,8,8s8-3.584,8-8v-0.408c5.832-0.584,11.464-1.832,16.864-3.6l0.176,0.4c1.328,2.992,4.248,4.768,7.328,4.768 c1.08,0,2.168-0.224,3.224-0.688c4.04-1.784,5.864-6.512,4.088-10.552l-0.192-0.44c3.912-2.232,7.64-4.744,11.112-7.584l0.32,0.32 c1.56,1.56,3.608,2.344,5.656,2.344s4.096-0.784,5.656-2.336c3.128-3.128,3.128-8.192,0-11.32l-0.32-0.32 c3.44-4.2,6.432-8.776,8.976-13.632l0.432,0.176c0.968,0.392,1.976,0.576,2.968,0.576c3.168,0,6.176-1.904,7.432-5.032 c1.64-4.104-0.36-8.76-4.464-10.4l-0.424-0.168c1.312-4.56,2.288-9.264,2.768-14.112H472V376z M392,432c-35.288,0-64-28.712-64-64 s28.712-64,64-64s64,28.712,64,64S427.288,432,392,432z"></path> <path style="fill:#73390E;" d="M168,376c4.416,0,8-3.584,8-8s-3.584-8-8-8h-0.408c-0.48-4.856-1.456-9.552-2.768-14.112 l0.424-0.168c4.104-1.64,6.096-6.296,4.456-10.4s-6.296-6.096-10.4-4.456l-0.424,0.168c-2.544-4.848-5.528-9.424-8.968-13.624 l0.32-0.32c3.128-3.128,3.128-8.184,0-11.312s-8.184-3.128-11.312,0l-0.32,0.32c-3.464-2.84-7.2-5.352-11.112-7.584l0.192-0.44 c1.784-4.04-0.04-8.768-4.08-10.552c-4.04-1.792-8.768,0.032-10.552,4.08l-0.176,0.408c-5.4-1.768-11.032-3.016-16.864-3.6V288 c0-4.416-3.584-8-8-8s-8,3.584-8,8v0.408c-5.832,0.584-11.464,1.832-16.864,3.6L62.96,291.6c-1.784-4.048-6.528-5.872-10.552-4.08 c-4.04,1.784-5.864,6.512-4.08,10.552l0.192,0.44c-3.912,2.232-7.648,4.744-11.112,7.584l-0.32-0.32 c-3.128-3.128-8.184-3.128-11.312,0s-3.128,8.184,0,11.312l0.32,0.32c-3.44,4.2-6.432,8.776-8.968,13.624l-0.424-0.168 c-4.112-1.656-8.76,0.344-10.4,4.456c-1.648,4.104,0.352,8.76,4.456,10.4l0.424,0.168c-1.32,4.56-2.296,9.256-2.776,14.112H8 c-4.416,0-8,3.584-8,8s3.584,8,8,8h0.408c0.48,4.856,1.456,9.552,2.768,14.112l-0.424,0.168c-4.104,1.64-6.096,6.296-4.456,10.4 c1.248,3.128,4.256,5.032,7.432,5.032c0.992,0,2-0.184,2.968-0.576l0.424-0.168c2.544,4.848,5.528,9.424,8.968,13.624l-0.32,0.32 c-3.128,3.128-3.128,8.184,0,11.312c1.56,1.56,3.608,2.344,5.656,2.344s4.096-0.784,5.656-2.344l0.32-0.32 c3.464,2.84,7.2,5.352,11.112,7.584l-0.192,0.44c-1.784,4.04,0.04,8.768,4.08,10.552c1.048,0.464,2.152,0.688,3.232,0.688 c3.072,0,6-1.784,7.32-4.768l0.176-0.408c5.4,1.768,11.032,3.016,16.864,3.6V448c0,4.416,3.584,8,8,8s8-3.584,8-8v-0.408 c5.832-0.584,11.464-1.832,16.864-3.6l0.176,0.408c1.32,2.992,4.248,4.768,7.32,4.768c1.08,0,2.176-0.224,3.232-0.688 c4.04-1.784,5.864-6.512,4.08-10.552l-0.192-0.44c3.912-2.232,7.648-4.744,11.112-7.584l0.32,0.32 c1.56,1.56,3.608,2.344,5.656,2.344s4.096-0.784,5.656-2.344c3.128-3.128,3.128-8.184,0-11.312l-0.32-0.32 c3.44-4.2,6.432-8.776,8.968-13.624l0.424,0.168c0.976,0.392,1.984,0.576,2.968,0.576c3.176,0,6.176-1.904,7.432-5.032 c1.648-4.104-0.352-8.76-4.456-10.4l-0.424-0.168c1.312-4.56,2.288-9.264,2.768-14.112L168,376L168,376z M88,432 c-35.288,0-64-28.712-64-64s28.712-64,64-64s64,28.712,64,64S123.288,432,88,432z"></path> <path style="fill:#73390E;" d="M192,88h-16c0-4.416-3.584-8-8-8s-8,3.584-8,8h-28.944l-18.208,36.424 c-1.976,3.952-0.376,8.76,3.576,10.736c1.144,0.568,2.368,0.84,3.568,0.84c2.936,0,5.76-1.616,7.168-4.424L140.944,104H160 c0,4.416,3.584,8,8,8s8-3.584,8-8h16c4.416,0,8-3.584,8-8S196.416,88,192,88z"></path> <path style="fill:#73390E;" d="M88.008,376c-0.608,0-1.224-0.064-1.84-0.208c-4.304-1.016-6.968-5.32-5.96-9.624l32-136 c1.016-4.304,5.336-6.968,9.624-5.96c4.304,1.016,6.968,5.32,5.96,9.624l-32,136C94.92,373.512,91.632,376,88.008,376z"></path> <path style="fill:#73390E;" d="M392,376c-2.048,0-4.096-0.784-5.656-2.344l-80-80c-3.128-3.128-3.128-8.184,0-11.312 s8.184-3.128,11.312,0l80,80c3.128,3.128,3.128,8.184,0,11.312C396.096,375.216,394.048,376,392,376z"></path> <path style="fill:#73390E;" d="M272,360h-16v-32c0-4.416-3.576-8-8-8c-4.416,0-8,3.584-8,8v32h-16c-4.416,0-8,3.584-8,8 s3.584,8,8,8h48c4.424,0,8-3.584,8-8S276.424,360,272,360z"></path> <path style="fill:#73390E;" d="M16,248c-3.176,0-6.176-1.904-7.432-5.032c-1.64-4.104,0.352-8.76,4.456-10.4l41.92-16.768 l66.048,8.256c4.384,0.544,7.496,4.544,6.944,8.928c-0.552,4.384-4.592,7.48-8.928,6.944l-61.952-7.744l-38.08,15.232 C18,247.816,16.992,248,16,248z"></path> </g> <polygon style="fill:#E67F33;" points="272,224 224,264 280,272 288,224 "></polygon> <path style="fill:#73390E;" d="M207.992,184c-1.2,0-2.424-0.272-3.568-0.84l-32-16c-3.952-1.976-5.552-6.784-3.576-10.736 s6.768-5.568,10.736-3.576l32,16c3.952,1.976,5.552,6.784,3.576,10.736C213.752,182.384,210.928,184,207.992,184z"></path> <g> <circle style="fill:#AD5F26;" cx="128" cy="184" r="8"></circle> <circle style="fill:#AD5F26;" cx="208" cy="296" r="8"></circle> </g> <g> <path style="fill:#73390E;" d="M120,272h-16c-4.416,0-8-3.584-8-8s3.584-8,8-8h16c4.416,0,8,3.584,8,8S124.416,272,120,272z"></path> <path style="fill:#73390E;" d="M24,456H8c-4.416,0-8-3.584-8-8s3.584-8,8-8h16c4.416,0,8,3.584,8,8S28.416,456,24,456z"></path> <path style="fill:#73390E;" d="M240,456h-88c-4.416,0-8-3.584-8-8s3.584-8,8-8h88c4.416,0,8,3.584,8,8S244.416,456,240,456z"></path> <path style="fill:#73390E;" d="M320,456h-48c-4.424,0-8-3.584-8-8s3.576-8,8-8h48c4.424,0,8,3.584,8,8S324.424,456,320,456z"></path> <path style="fill:#73390E;" d="M472,456h-16c-4.424,0-8-3.584-8-8s3.576-8,8-8h16c4.424,0,8,3.584,8,8S476.424,456,472,456z"></path> </g> <g> <path style="fill:#CE9F7D;" d="M240,40h-24c-4.416,0-8-3.584-8-8s3.584-8,8-8h24c4.416,0,8,3.584,8,8S244.416,40,240,40z"></path> <path style="fill:#CE9F7D;" d="M280,40h-8c-4.424,0-8-3.584-8-8s3.576-8,8-8h8c4.424,0,8,3.584,8,8S284.424,40,280,40z"></path> <path style="fill:#CE9F7D;" d="M32,72H8c-4.416,0-8-3.584-8-8s3.584-8,8-8h24c4.416,0,8,3.584,8,8S36.416,72,32,72z"></path> <path style="fill:#CE9F7D;" d="M72,72h-8c-4.416,0-8-3.584-8-8s3.584-8,8-8h8c4.416,0,8,3.584,8,8S76.416,72,72,72z"></path> <path style="fill:#CE9F7D;" d="M432,104h-24c-4.424,0-8-3.584-8-8s3.576-8,8-8h24c4.424,0,8,3.584,8,8S436.424,104,432,104z"></path> <path style="fill:#CE9F7D;" d="M472,104h-8c-4.424,0-8-3.584-8-8s3.576-8,8-8h8c4.424,0,8,3.584,8,8S476.424,104,472,104z"></path> <path style="fill:#CE9F7D;" d="M304,152h-24c-4.424,0-8-3.584-8-8s3.576-8,8-8h24c4.424,0,8,3.584,8,8S308.424,152,304,152z"></path> <path style="fill:#CE9F7D;" d="M344,152h-8c-4.424,0-8-3.584-8-8s3.576-8,8-8h8c4.424,0,8,3.584,8,8S348.424,152,344,152z"></path> </g> </g></svg>