<svg height="200px" width="200px" version="1.1" id="Layer_1" xmlns="http://www.w3.org/2000/svg" xmlns:xlink="http://www.w3.org/1999/xlink" viewBox="0 0 480 480" xml:space="preserve" fill="#000000"><g id="SVGRepo_bgCarrier" stroke-width="0"></g><g id="SVGRepo_tracerCarrier" stroke-linecap="round" stroke-linejoin="round"></g><g id="SVGRepo_iconCarrier"> <g> <path style="fill:#CE9F7D;" d="M472,28.002h-24c-2.816,0-5.416,1.48-6.856,3.88l-22.296,37.16l-60.784,15.2 c-2.152,0.528-3.976,1.936-5.056,3.872L321.04,145.65L279.656,9.674c-1.032-3.368-4.136-5.672-7.656-5.672h-32 c-3.672,0-6.872,2.496-7.76,6.064l-6.488,25.936H184c-3.336,0-6.32,2.072-7.496,5.184l-22.048,58.816H88V71.314l10.344,10.344 c1.56,1.56,3.608,2.344,5.656,2.344s4.096-0.784,5.656-2.344c3.128-3.128,3.128-8.184,0-11.312L88,48.69V31.314l10.344,10.344 c1.56,1.56,3.608,2.344,5.656,2.344s4.096-0.784,5.656-2.344c3.128-3.128,3.128-8.184,0-11.312L85.664,6.354 c-0.736-0.744-1.624-1.328-2.608-1.736c-1.952-0.808-4.16-0.808-6.112,0C75.96,5.026,75.08,5.61,74.336,6.354L50.344,30.346 c-3.128,3.128-3.128,8.184,0,11.312s8.184,3.128,11.312,0L72,31.314V48.69L50.344,70.346c-3.128,3.128-3.128,8.184,0,11.312 s8.184,3.128,11.312,0L72,71.314v28.688h-8c-3.552,0-6.672,2.336-7.672,5.744L18.016,236.002H8c-4.416,0-8,3.576-8,8 c0,4.424,3.584,8,8,8h16c3.552,0,6.672-2.336,7.672-5.744l38.312-130.256H160c3.336,0,6.32-2.072,7.496-5.184l22.048-58.816H232 c3.672,0,6.872-2.496,7.76-6.064l6.488-25.936h19.824l54.272,178.328c1.288,4.224,5.744,6.616,9.984,5.328 c4.224-1.288,6.608-5.76,5.328-9.984l-8.136-26.736l37.784-68.016l60.632-15.168c2.064-0.504,3.832-1.824,4.92-3.64l21.672-36.112 H472c4.424,0,8-3.576,8-8S476.424,28.002,472,28.002z"></path> <path style="fill:#CE9F7D;" d="M326,53.57c4.4,2.536,9.2,3.744,13.952,3.744c9.68,0,19.112-5.016,24.296-13.992 c7.72-13.368,3.128-30.52-10.248-38.248c-3.824-2.208-8.72-0.912-10.928,2.928c-2.208,3.832-0.896,8.72,2.928,10.928 c5.728,3.304,7.704,10.664,4.392,16.392c-1.6,2.776-4.184,4.76-7.288,5.592c-3.104,0.816-6.328,0.4-9.104-1.2 c-3.832-2.208-8.712-0.904-10.928,2.928S322.168,51.362,326,53.57z"></path> </g> <g> <path style="fill:#73390E;" d="M224.664,220.002H168v-32c0-4.424-3.584-8-8-8s-8,3.576-8,8v32h-24c-4.408,0-8-3.584-8-8v-64 c0-4.424-3.584-8-8-8s-8,3.576-8,8v64c0,13.232,10.768,24,24,24h96.664c4.416,0,8-3.576,8-8S229.088,220.002,224.664,220.002z"></path> <path style="fill:#73390E;" d="M448,140.002c-4.424,0-8,3.576-8,8v64c0,4.416-3.584,8-8,8h-24v-32c0-4.424-3.576-8-8-8 s-8,3.576-8,8v32h-54c-4.424,0-8,3.576-8,8s3.576,8,8,8h94c13.232,0,24-10.768,24-24v-64C456,143.578,452.424,140.002,448,140.002z "></path> </g> <g> <path style="fill:#E67F33;" d="M472,300.002H328l-13.608,74.864c-1.384,7.608-8.016,13.136-15.744,13.136H296l32,88h144V300.002z"></path> <path style="fill:#E67F33;" d="M300.216,388.002H276.88c-15.64,0-28.992-11.312-31.568-26.736L220.88,214.634 c-1.632-9.752,5.896-18.632,15.776-18.632h90.224c9.888,0,17.408,8.88,15.784,18.632l-26.664,160 C314.712,382.346,308.04,388.002,300.216,388.002z"></path> </g> <g> <path style="fill:#73390E;" d="M256,276.002c-2.168,0-4.168-0.808-5.68-2.32c-1.52-1.52-2.32-3.52-2.32-5.68 c0-2.08,0.872-4.168,2.32-5.68c0.4-0.32,0.8-0.72,1.192-0.96c0.488-0.32,0.96-0.56,1.448-0.72c0.48-0.24,0.96-0.4,1.44-0.488 c2.64-0.552,5.44,0.32,7.28,2.168c0.72,0.8,1.28,1.6,1.68,2.64c0.472,0.96,0.64,2,0.64,3.04c0,2.16-0.808,4.16-2.32,5.68 C260.16,275.194,258.16,276.002,256,276.002z"></path> <path style="fill:#73390E;" d="M304,276.002c-2.168,0-4.168-0.808-5.68-2.32c-1.52-1.52-2.32-3.52-2.32-5.68 c0-2.08,0.872-4.168,2.32-5.68c1.832-1.84,4.64-2.72,7.192-2.168c0.56,0.088,1.04,0.24,1.52,0.488c0.48,0.16,0.96,0.4,1.44,0.72 c0.4,0.24,0.808,0.64,1.2,0.96c1.448,1.512,2.328,3.6,2.328,5.68c0,2.16-0.808,4.16-2.32,5.68 C308.16,275.194,306.16,276.002,304,276.002z"></path> </g> <path style="fill:#F0B285;" d="M392,476.002v-40c0-26.512-21.488-48-48-48h-48l32,88H392z"></path> <path style="fill:#FDC567;" d="M8,300.002h148.976c20.048,0,37,14.84,39.648,34.712l9.52,71.4 c1.064,7.952,7.848,13.888,15.864,13.888H256c8.84,0,16,7.16,16,16v24c0,8.84-7.16,16-16,16H8V300.002z"></path> <g> <path style="fill:#FCB641;" d="M56,364.946l-19.576-9.792c-3.952-1.976-5.552-6.784-3.576-10.736 c1.976-3.952,6.768-5.536,10.736-3.576L56,347.058l12.424-6.208c3.968-1.96,8.76-0.376,10.736,3.576s0.376,8.76-3.576,10.736 L56,364.946z"></path> <path style="fill:#FCB641;" d="M152,364.946l-19.576-9.792c-3.952-1.976-5.552-6.784-3.576-10.736s6.776-5.536,10.736-3.576 L152,347.058l12.424-6.208c3.96-1.96,8.76-0.376,10.736,3.576s0.376,8.76-3.576,10.736L152,364.946z"></path> <path style="fill:#FCB641;" d="M104,436.946l-19.576-9.792c-3.952-1.976-5.552-6.784-3.576-10.736 c1.976-3.952,6.768-5.544,10.736-3.576L104,419.058l12.424-6.208c3.96-1.968,8.76-0.376,10.736,3.576s0.376,8.76-3.576,10.736 L104,436.946z"></path> </g> </g></svg>