<svg height="200px" width="200px" version="1.1" id="Layer_1" xmlns="http://www.w3.org/2000/svg" xmlns:xlink="http://www.w3.org/1999/xlink" viewBox="0 0 472 472" xml:space="preserve" fill="#000000"><g id="SVGRepo_bgCarrier" stroke-width="0"></g><g id="SVGRepo_tracerCarrier" stroke-linecap="round" stroke-linejoin="round"></g><g id="SVGRepo_iconCarrier"> <g> <path style="fill:#73390E;" d="M92,184c-4.416,0-8-3.584-8-8v-32c0-4.416,3.584-8,8-8s8,3.584,8,8v32 C100,180.416,96.416,184,92,184z"></path> <path style="fill:#73390E;" d="M92,256c-4.416,0-8-3.584-8-8v-32c0-4.416,3.584-8,8-8s8,3.584,8,8v32 C100,252.416,96.416,256,92,256z"></path> <path style="fill:#73390E;" d="M92,336c-4.416,0-8-3.584-8-8v-32c0-4.416,3.584-8,8-8s8,3.584,8,8v32 C100,332.416,96.416,336,92,336z"></path> <path style="fill:#73390E;" d="M380,400c-4.416,0-8-3.584-8-8v-32c0-4.416,3.584-8,8-8s8,3.584,8,8v32 C388,396.416,384.416,400,380,400z"></path> <path style="fill:#73390E;" d="M380,336c-4.416,0-8-3.584-8-8v-32c0-4.416,3.584-8,8-8s8,3.584,8,8v32 C388,332.416,384.416,336,380,336z"></path> </g> <path style="fill:#E67F33;" d="M335.984,100.336L180,87.336V44c0-24.304-19.696-44-44-44S92,19.696,92,44v44v336 c0,26.512,21.488,48,48,48h192c26.512,0,48-21.488,48-48V148.168C380,123.2,360.864,102.408,335.984,100.336z"></path> <path style="fill:#73390E;" d="M148,96c-4.328,0-7.88-3.448-7.992-7.8c-0.112-4.416,3.376-8.088,7.8-8.192l26.664-0.664 c4.416-0.24,8.08,3.376,8.192,7.8c0.112,4.416-3.376,8.088-7.8,8.2L148.2,96C148.136,96,148.064,96,148,96z"></path> <path style="fill:#FFFCF7;" d="M316,416H156c-8.84,0-16-7.16-16-16V160c0-8.84,7.16-16,16-16h160c8.84,0,16,7.16,16,16v240 C332,408.84,324.84,416,316,416z"></path> <polygon style="fill:#FCB641;" points="236,216 172,344 236,312 300,344 "></polygon> <g> <path style="fill:#E67F33;" d="M180,184h-8c-4.416,0-8-3.584-8-8s3.584-8,8-8h8c4.416,0,8,3.584,8,8S184.416,184,180,184z"></path> <path style="fill:#E67F33;" d="M220,184h-8c-4.416,0-8-3.584-8-8s3.584-8,8-8h8c4.416,0,8,3.584,8,8S224.416,184,220,184z"></path> <path style="fill:#E67F33;" d="M300,184h-32c-4.416,0-8-3.584-8-8s3.584-8,8-8h32c4.416,0,8,3.584,8,8S304.416,184,300,184z"></path> <path style="fill:#E67F33;" d="M260,392h-48c-4.416,0-8-3.584-8-8s3.584-8,8-8h48c4.416,0,8,3.584,8,8S264.416,392,260,392z"></path> </g> <path style="fill:#73390E;" d="M124,56h-24c-4.416,0-8-3.584-8-8s3.584-8,8-8h24c4.416,0,8,3.584,8,8S128.416,56,124,56z"></path> </g></svg>