<svg version="1.1" id="Layer_1" xmlns="http://www.w3.org/2000/svg" xmlns:xlink="http://www.w3.org/1999/xlink" viewBox="0 0 472 472" xml:space="preserve" fill="#000000"><g id="SVGRepo_bgCarrier" stroke-width="0"></g><g id="SVGRepo_tracerCarrier" stroke-linecap="round" stroke-linejoin="round"></g><g id="SVGRepo_iconCarrier"> <path style="fill:#E67F33;" d="M452,472H20c-8.84,0-16-7.16-16-16V120c0-8.84,7.16-16,16-16h432c8.84,0,16,7.16,16,16v336 C468,464.84,460.84,472,452,472z"></path> <circle style="fill:#FEF0D9;" cx="236" cy="288" r="112"></circle> <g> <polygon style="fill:#FCB641;" points="308,256 268,256 268,216 204,216 204,256 164,256 164,320 204,320 204,360 268,360 268,320 308,320 "></polygon> <path style="fill:#FCB641;" d="M291.272,72H180c-8.84,0-16-7.16-16-16V24c0-8.84,7.16-16,16-16h111.272c8.84,0,16,7.16,16,16v32 C307.272,64.84,300.112,72,291.272,72z"></path> <rect x="44" y="96" style="fill:#FCB641;" width="40" height="56"></rect> </g> <path style="fill:#FDC567;" d="M68,184h-8c-8.84,0-16-7.16-16-16v-16h40v16C84,176.84,76.84,184,68,184z"></path> <rect x="396" y="96" style="fill:#FCB641;" width="40" height="56"></rect> <path style="fill:#FDC567;" d="M420,184h-8c-8.84,0-16-7.16-16-16v-16h40v16C436,176.84,428.84,184,420,184z"></path> <g> <path style="fill:#FCB641;" d="M84,472H44v-16c0-8.84,7.16-16,16-16h8c8.84,0,16,7.16,16,16V472z"></path> <path style="fill:#FCB641;" d="M428,472h-40v-16c0-8.84,7.16-16,16-16h8c8.84,0,16,7.16,16,16V472z"></path> </g> <g> <path style="fill:#73390E;" d="M103.288,240c-1.04,0-2.096-0.2-3.112-0.632c-4.072-1.72-5.976-6.416-4.256-10.488 C119.768,172.464,174.752,136,236,136c61.256,0,116.232,36.464,140.072,92.888c1.72,4.072-0.184,8.76-4.256,10.48 c-4.064,1.728-8.76-0.184-10.48-4.256C340.008,184.624,290.816,152,236,152c-54.808,0-104,32.624-125.336,83.12 C109.368,238.168,106.408,240,103.288,240z"></path> <path style="fill:#73390E;" d="M236,440c-58.112,0-110.296-32.344-136.184-84.416c-1.968-3.96-0.352-8.76,3.6-10.728 c3.96-1.984,8.76-0.352,10.728,3.6C137.312,395.056,184,424,236,424c52.008,0,98.704-28.952,121.864-75.552 c1.968-3.952,6.752-5.576,10.728-3.6c3.952,1.968,5.568,6.768,3.6,10.728C346.312,407.648,294.128,440,236,440z"></path> <path style="fill:#73390E;" d="M196,32c-4.416,0-8-3.576-8-8V8c0-4.424,3.584-8,8-8s8,3.576,8,8v16C204,28.424,200.416,32,196,32z"></path> <path style="fill:#73390E;" d="M236,32c-4.416,0-8-3.576-8-8V8c0-4.424,3.584-8,8-8c4.416,0,8,3.576,8,8v16 C244,28.424,240.416,32,236,32z"></path> <path style="fill:#73390E;" d="M276,32c-4.424,0-8-3.576-8-8V8c0-4.424,3.576-8,8-8s8,3.576,8,8v16C284,28.424,280.424,32,276,32z"></path> </g> <g> <path style="fill:#AD5F26;" d="M164,24h-56c-8.84,0-16,7.16-16,16v64h32V56l40,0.728V24z"></path> <path style="fill:#AD5F26;" d="M308,24h56c8.84,0,16,7.16,16,16v64h-32V56l-40,0.728V24z"></path> </g> <g> <path style="fill:#73390E;" d="M52,296c-2.16,0-4.16-0.808-5.68-2.32C44.8,292.16,44,290.16,44,288c0-1.04,0.24-2.08,0.64-3.04 c0.4-1.04,0.96-1.84,1.68-2.64c2.96-2.96,8.4-2.96,11.36,0c0.72,0.8,1.28,1.6,1.68,2.64c0.4,0.96,0.64,2,0.64,3.04 c0,2.16-0.8,4.16-2.32,5.68C56.16,295.192,54.16,296,52,296z"></path> <path style="fill:#73390E;" d="M84,296c-2.16,0-4.16-0.808-5.68-2.32C76.8,292.16,76,290.16,76,288c0-1.04,0.24-2.08,0.64-3.04 c0.4-1.04,0.96-1.84,1.68-2.64c0.4-0.32,0.8-0.72,1.2-0.96c0.48-0.32,0.96-0.56,1.44-0.72c0.48-0.24,0.96-0.4,1.44-0.488 c1.6-0.32,3.2-0.16,4.64,0.488c1.04,0.4,1.84,0.96,2.64,1.68c0.72,0.8,1.28,1.6,1.68,2.64c0.48,0.96,0.64,2,0.64,3.04 s-0.16,2.08-0.64,3.04c-0.4,0.96-0.96,1.832-1.68,2.64c-0.8,0.72-1.68,1.28-2.64,1.68S85.04,296,84,296z"></path> <path style="fill:#73390E;" d="M388,296c-2.168,0-4.168-0.808-5.68-2.32c-0.72-0.808-1.28-1.68-1.68-2.64 c-0.48-0.96-0.64-2-0.64-3.04s0.16-2.08,0.64-3.04c0.4-1.04,0.96-1.84,1.68-2.64c0.8-0.72,1.6-1.28,2.64-1.68 c2.96-1.2,6.48-0.56,8.72,1.68c0.72,0.8,1.28,1.6,1.68,2.64c0.4,0.96,0.64,2,0.64,3.04c0,2.16-0.808,4.16-2.32,5.68 C392.16,295.192,390.16,296,388,296z"></path> <path style="fill:#73390E;" d="M420,296c-2.168,0-4.168-0.808-5.68-2.32c-1.52-1.52-2.32-3.52-2.32-5.68 c0-1.04,0.24-2.08,0.64-3.04c0.4-1.04,0.96-1.84,1.68-2.64c2.96-2.96,8.4-2.96,11.36,0c0.72,0.8,1.28,1.6,1.68,2.64 c0.4,0.96,0.64,2,0.64,3.04c0,2.16-0.808,4.16-2.32,5.68c-0.808,0.72-1.68,1.28-2.64,1.68S421.04,296,420,296z"></path> </g> </g></svg>